<svg xmlns="http://www.w3.org/2000/svg" viewBox="0 0 1200 300" fill="none">
  <defs>
    <linearGradient id="g1" x1="0" x2="1" y1="0" y2="0">
      <stop offset="0%" stop-color="#0b1f3a"/>
      <stop offset="100%" stop-color="#102a56"/>
    </linearGradient>
  </defs>
  <rect width="1200" height="300" fill="url(#g1)"/>
  <path d="M0 180 Q300 120 600 180 T1200 180 L1200 220 Q900 260 600 220 T0 220Z" fill="#ff9933" opacity="0.8"/>
  <path d="M0 220 Q300 260 600 220 T1200 220 L1200 260 Q900 280 600 260 T0 260Z" fill="#ffffff" opacity="0.8"/>
  <path d="M0 260 Q300 280 600 260 T1200 260 L1200 300 L0 300Z" fill="#138808" opacity="0.8"/>
  <g transform="translate(980,40)">
    <circle cx="40" cy="40" r="36" stroke="#fff" stroke-width="4" fill="none"/>
    <g transform="translate(40,40)">
      <g fill="#fff">
        <rect x="-2" y="-36" width="4" height="18"/>
        <rect x="-2" y="18" width="4" height="18"/>
        <rect x="-36" y="-2" width="18" height="4"/>
        <rect x="18" y="-2" width="18" height="4"/>
      </g>
      <circle r="6" fill="#fff"/>
    </g>
  </g>
</svg>

